<mxfile host="app.diagrams.net" agent="Mozilla/5.0 (Windows NT 10.0; Win64; x64) AppleWebKit/537.36 (KHTML, like Gecko) Chrome/131.0.0.0 Safari/537.36" version="26.0.4">
  <diagram name="Page-1" id="V1OahILCTMVOX1gB3y7c">
    <mxGraphModel>
      <root>
        <mxCell id="0" />
        <mxCell id="1" parent="0" />
        <mxCell id="2" value="Square" style="fillColor=none;strokeColor=none;" vertex="1" parent="1">
          <mxGeometry x="358" y="38" width="109" height="54" as="geometry" />
        </mxCell>
        <mxCell id="3" value="Round" style="rounded=1;arcSize=40;strokeWidth=2" vertex="1" parent="1">
          <mxGeometry x="556" y="38" width="74" height="54" as="geometry" />
        </mxCell>
        <mxCell id="4" value="Decision" style="rhombus;strokeWidth=2;whiteSpace=wrap;" vertex="1" parent="1">
          <mxGeometry x="727" y="8" width="113" height="113" as="geometry" />
        </mxCell>
        <mxCell id="5" value="Result 1" style="fillColor=none;strokeColor=none;" vertex="1" parent="1">
          <mxGeometry x="961" y="38" width="117" height="54" as="geometry" />
        </mxCell>
        <mxCell id="6" value="Result 2" style="fillColor=none;strokeColor=none;" vertex="1" parent="1">
          <mxGeometry x="961" y="316" width="117" height="54" as="geometry" />
        </mxCell>
        <mxCell id="7" value="Rhombus" style="fillColor=none;strokeColor=none;" vertex="1" parent="1">
          <mxGeometry x="150" y="38" width="124" height="54" as="geometry" />
        </mxCell>
        <mxCell id="8" value="Trapezoid" style="fillColor=none;strokeColor=none;" vertex="1" parent="1">
          <mxGeometry x="719" y="191" width="129" height="54" as="geometry" />
        </mxCell>
        <mxCell id="9" value="Circle" style="ellipse;aspect=fixed;strokeWidth=2;whiteSpace=wrap;" vertex="1" parent="1">
          <mxGeometry x="756" y="335" width="57" height="57" as="geometry" />
        </mxCell>
        <mxCell id="10" value="Hexagon" style="strokeWidth=2;shape=process;whiteSpace=wrap;size=0.04;" vertex="1" parent="1">
          <mxGeometry x="8" y="45" width="92" height="39" as="geometry" />
        </mxCell>
        <mxCell id="11" value="Parallelogram" style="rhombus;strokeWidth=2;whiteSpace=wrap;" vertex="1" parent="1">
          <mxGeometry x="517" y="142" width="153" height="153" as="geometry" />
        </mxCell>
        <mxCell id="12" value="Octagon" style="shape=mxgraph.arrows2.arrow;dy=0;dx=0;notch=20;strokeWidth=2;whiteSpace=wrap;" vertex="1" parent="1">
          <mxGeometry x="551" y="344" width="84" height="39" as="geometry" />
        </mxCell>
        <mxCell id="13" value="" style="curved=1;startArrow=circle;startFill=0;endArrow=block;exitX=1;exitY=0.49;entryX=0;entryY=0.49;" edge="1" parent="1" source="2" target="3">
          <mxGeometry relative="1" as="geometry">
            <Array as="points" />
          </mxGeometry>
        </mxCell>
        <mxCell id="14" value="" style="curved=1;startArrow=none;endArrow=block;exitX=1;exitY=0.49;entryX=0;entryY=0.5;" edge="1" parent="1" source="3" target="4">
          <mxGeometry relative="1" as="geometry">
            <Array as="points" />
          </mxGeometry>
        </mxCell>
        <mxCell id="15" value="Yes" style="curved=1;startArrow=none;endArrow=circle;endFill=0;exitX=1.01;exitY=0.5;entryX=0;entryY=0.49;" edge="1" parent="1" source="4" target="5">
          <mxGeometry relative="1" as="geometry">
            <Array as="points" />
          </mxGeometry>
        </mxCell>
        <mxCell id="16" value="No" style="curved=1;startArrow=none;endArrow=circle;endFill=0;exitX=0.77;exitY=1;entryX=0;entryY=0;" edge="1" parent="1" source="4" target="6">
          <mxGeometry relative="1" as="geometry">
            <Array as="points">
              <mxPoint x="905" y="291" />
            </Array>
          </mxGeometry>
        </mxCell>
        <mxCell id="17" value="Link" style="curved=1;startArrow=circle;startFill=0;endArrow=block;exitX=1;exitY=0.49;entryX=0;entryY=0.49;" edge="1" parent="1" source="7" target="2">
          <mxGeometry relative="1" as="geometry">
            <Array as="points" />
          </mxGeometry>
        </mxCell>
        <mxCell id="18" value="Connect" style="curved=1;startArrow=circle;startFill=0;endArrow=block;exitX=1.01;exitY=0.5;entryX=0.33;entryY=0.99;" edge="1" parent="1" source="8" target="5">
          <mxGeometry relative="1" as="geometry">
            <Array as="points">
              <mxPoint x="905" y="218" />
            </Array>
          </mxGeometry>
        </mxCell>
        <mxCell id="19" value="Tooltip" style="curved=1;startArrow=none;endArrow=block;exitX=0.99;exitY=0.51;entryX=0;entryY=0.69;" edge="1" parent="1" source="9" target="6">
          <mxGeometry relative="1" as="geometry">
            <Array as="points">
              <mxPoint x="905" y="364" />
            </Array>
          </mxGeometry>
        </mxCell>
        <mxCell id="20" value="" style="curved=1;startArrow=none;endArrow=block;exitX=1;exitY=0.51;entryX=0;entryY=0.49;" edge="1" parent="1" source="10" target="7">
          <mxGeometry relative="1" as="geometry">
            <Array as="points" />
          </mxGeometry>
        </mxCell>
        <mxCell id="21" value="" style="curved=1;startArrow=none;endArrow=block;exitX=1;exitY=0.5;entryX=0;entryY=0.5;" edge="1" parent="1" source="11" target="8">
          <mxGeometry relative="1" as="geometry">
            <Array as="points" />
          </mxGeometry>
        </mxCell>
        <mxCell id="22" value="" style="curved=1;startArrow=none;endArrow=block;exitX=1;exitY=0.51;entryX=-0.01;entryY=0.51;" edge="1" parent="1" source="12" target="9">
          <mxGeometry relative="1" as="geometry">
            <Array as="points" />
          </mxGeometry>
        </mxCell>
      </root>
    </mxGraphModel>
  </diagram>
</mxfile>
